<svg id="Layer_1" data-name="Layer 1" xmlns="http://www.w3.org/2000/svg" viewBox="0 0 97.18 83.02"><defs><style>.cls-1{fill:#010101;}.cls-2{fill:#fff;}</style></defs><circle class="cls-1" cx="48.59" cy="43.53" r="32.44"/><path class="cls-2" d="M48.59,31c4.08,0,4.56,0,6.17.09a8.49,8.49,0,0,1,2.84.53,5,5,0,0,1,2.9,2.9A8.41,8.41,0,0,1,61,37.35c.07,1.62.09,2.1.09,6.18s0,4.56-.09,6.17a8.49,8.49,0,0,1-.53,2.84,4.82,4.82,0,0,1-1.14,1.76,4.91,4.91,0,0,1-1.76,1.14,8.49,8.49,0,0,1-2.84.53c-1.61.07-2.09.09-6.17.09S44,56,42.41,56a8.35,8.35,0,0,1-2.83-.53,4.74,4.74,0,0,1-1.76-1.14,4.58,4.58,0,0,1-1.14-1.76,8.49,8.49,0,0,1-.53-2.84c-.07-1.61-.09-2.09-.09-6.17s0-4.56.09-6.18a8.41,8.41,0,0,1,.53-2.83,5,5,0,0,1,2.9-2.9,8.35,8.35,0,0,1,2.83-.53C44,31,44.51,31,48.59,31m0-2.75c-4.15,0-4.67,0-6.3.09a11,11,0,0,0-3.71.71,7.44,7.44,0,0,0-2.71,1.76,7.53,7.53,0,0,0-1.76,2.71,11,11,0,0,0-.71,3.71c-.08,1.63-.09,2.15-.09,6.3s0,4.67.09,6.3a11,11,0,0,0,.71,3.71,7.53,7.53,0,0,0,1.76,2.71A7.44,7.44,0,0,0,38.58,58a11.28,11.28,0,0,0,3.71.71c1.63.07,2.15.09,6.3.09s4.67,0,6.3-.09A11.28,11.28,0,0,0,58.6,58a7.85,7.85,0,0,0,4.47-4.47,11.55,11.55,0,0,0,.71-3.71c.07-1.63.09-2.15.09-6.3s0-4.67-.09-6.3a11.55,11.55,0,0,0-.71-3.71,7.85,7.85,0,0,0-4.47-4.47,11,11,0,0,0-3.71-.71c-1.63-.07-2.15-.09-6.3-.09"/><path class="cls-2" d="M48.59,35.68a7.85,7.85,0,1,0,7.85,7.85,7.85,7.85,0,0,0-7.85-7.85m0,12.94a5.09,5.09,0,1,1,5.09-5.09,5.1,5.1,0,0,1-5.09,5.09"/><path class="cls-2" d="M58.58,35.37a1.84,1.84,0,1,1-1.83-1.83,1.83,1.83,0,0,1,1.83,1.83"/></svg>