<svg id="Layer_1" data-name="Layer 1" xmlns="http://www.w3.org/2000/svg" viewBox="0 0 101.88 83.53"><defs><style>.cls-1{fill:#010101;}.cls-2{fill:#f0f1f1;}</style></defs><circle class="cls-1" cx="50.94" cy="43.88" r="32.44"/><path class="cls-2" d="M53,50.93c-1.9-.14-2.7-1.09-4.19-2C48,53.24,47,57.37,44,59.53c-.92-6.51,1.34-11.4,2.4-16.59-1.8-3,.21-9.1,4-7.6,4.66,1.84-4,11.22,1.81,12.39C58.26,49,60.75,37.17,57,33.34c-5.45-5.54-15.87-.13-14.59,7.8.31,1.93,2.31,2.52.8,5.19-3.49-.77-4.53-3.52-4.4-7.19.22-6,5.4-10.22,10.6-10.8C56,27.6,62.12,30.75,63,36.94c1,7-3,14.54-10,14Z"/></svg>