<svg id="Layer_1" data-name="Layer 1" xmlns="http://www.w3.org/2000/svg" viewBox="0 0 258.67 212.88"><defs><style>.cls-1{fill:#fff;}.cls-2{fill:none;stroke:#fff;stroke-miterlimit:10;}</style></defs><path class="cls-1" d="M192.63,109.35V89.09H177A56.3,56.3,0,0,0,167.83,67L177.9,56.91,163.58,42.59,153.51,52.67a56.17,56.17,0,0,0-21.19-9V27.86H112.07V43.35a56.16,56.16,0,0,0-21,7.95L79.55,39.74,65.23,54.06,76.16,65a56.44,56.44,0,0,0-10.6,24.09H49.92v20.26H65.56a56.46,56.46,0,0,0,9.16,22.1L63.9,142.28,78.22,156.6,89,145.77a56.26,56.26,0,0,0,23,9.32v15.49h20.25V154.77a56.42,56.42,0,0,0,23.18-10.44l10.92,10.93,14.33-14.32-11.56-11.55a56.22,56.22,0,0,0,7.79-20Z"/><circle class="cls-2" cx="121.27" cy="99.22" r="29.9"/></svg>